
        <svg xmlns="http://www.w3.org/2000/svg" xmlns:xlink="http://www.w3.org/1999/xlink" version="1.1" width="84px" 
        height="84px" viewBox="0 0 3187.5 1116.6056656737983">
			
			<g transform="scale(9.375) translate(10, 10)">
				<defs id="SvgjsDefs2174"></defs><g id="SvgjsG2175" featureKey="UFHKJ9-0" transform="matrix(1.1111129007250564,0,0,1.1111129007250564,-5.555950742345522,-6.003342866983581)" fill="#0037fd"><g xmlns="http://www.w3.org/2000/svg"><path fill="#0037fd" d="M61.402,94.597l-9.556-54.549l-9.604,30.286L30.666,48.227L9.511,50.178   c-2.268,0.204-4.283-1.462-4.493-3.734c-0.209-2.271,1.462-4.283,3.734-4.492l26.665-2.459l4.945,9.442L54.165,5.403l9.841,56.175   l3.896-11.346l22.743-1.236c2.28-0.118,4.225,1.622,4.349,3.9c0.124,2.277-1.622,4.225-3.9,4.349L73.908,58.18L61.402,94.597z"></path></g></g><g id="SvgjsG2176" featureKey="XAPJzK-0" transform="matrix(4.19003485728461,0,0,4.19003485728461,114.133952798173,-5.014509216849138)" fill="#1757fa"><path d="M9.2 6.4399999999999995 l0 8.6 c0 6.6 -7.8 6.64 -7.8 -0.02 l0 -8.6 c0 -0.6 2.28 -0.6 2.28 0 l0 8.6 c0 3.66 3.24 3.68 3.24 0.02 l0 -8.6 c0 -0.6 2.28 -0.6 2.28 0 z M19.16 13.68 l0 2.02 c0 0.58 0.1 1.86 -0.44 2.82 c-0.62 1.1 -1.8 1.42 -2.9 1.48 c-1.08 0.06 -2.1 -0.34 -2.86 -1.1 c-0.8 -0.76 -0.92 -1.72 -0.96 -2.44 l0 -0.04 l0 -6.84 l0 -0.04 c0.04 -0.72 0.16 -1.68 0.96 -2.44 c0.76 -0.76 1.78 -1.16 2.86 -1.1 c2.32 0.12 3.24 1.54 3.24 3.86 c0 0.52 -2.18 0.6 -2.18 -0.08 c0 -1.56 -0.92 -1.64 -1.86 -1.38 c-0.62 0.28 -0.74 1 -0.74 1.52 l0 6.18 c0.02 0.5 0.08 1.22 0.7 1.5 c0.48 0.16 1.94 0.4 2.06 -0.8 c0.04 -0.18 0.02 -0.48 0.02 -0.7 l-0.02 -1.24 l-0.88 0 c-0.6 0 -0.6 -2.3 0 -2.3 l2.02 0 c0.98 0 0.98 0 0.98 1.12 z M27.1 13.6 l0 -7.18 c0 -0.6 2.2 -0.6 2.2 0 l0 12.74 c0 1 -1.92 1.02 -2.12 0.52 l-3 -7.36 l0 7.24 c0 0.6 -2.22 0.6 -2.22 0 l0 -12.5 c0 -1.56 1.9 -1.08 2.2 -0.48 z M36.96 16.2 c0 -0.6 2.22 -0.6 2.22 0 c0 2.24 -1.16 3.8 -3.28 3.8 c-2.22 0 -3.74 -1.38 -3.8 -3.5 l0 -0.04 l0 -6.9 l0 -0.04 c0.06 -2.14 1.66 -3.56 3.8 -3.52 c2.24 0.04 3.28 1.6 3.28 3.82 c0 0.6 -2.22 0.6 -2.22 0 c0 -0.22 0 -0.4 -0.04 -0.6 c-0.12 -1.18 -1.54 -0.96 -1.84 -0.8 c-0.58 0.28 -0.7 0.98 -0.7 1.46 l0 6.26 c0.02 0.48 0.12 1.18 0.7 1.46 c0.3 0.16 1.72 0.38 1.84 -0.78 c0.04 -0.2 0.04 -0.4 0.04 -0.62 z M49.080000000000005 18.86 c0.42 1 -1.82 1.48 -2.08 0.88 l-0.12 -0.28 c-0.66 -1.58 -1.38 -3.38 -2.04 -4.98 l-0.98 0 l0 5.08 c0 0.6 -2.28 0.6 -2.28 0 l0 -12.3 c0 -0.94 0.02 -1.24 1.42 -1.26 l2.06 0 c0.72 0 1.52 0.02 2.14 0.42 c1.36 0.86 1.78 2.38 1.76 3.92 c-0.02 1.28 -0.2 2.56 -1.46 3.5 c-0.14 0.08 -0.26 0.16 -0.38 0.24 c0.64 1.52 1.34 3.26 1.96 4.78 z M43.86000000000001 12.2 l1.72 0 c0.92 0 1.06 -1.12 1.1 -1.44 c0.02 -0.22 0.02 -1.02 -0.02 -1.4 c-0.08 -0.74 -0.36 -1.12 -1.28 -1.12 l-1.52 0 l0 3.96 z"></path></g>
			</g>
		</svg>
	