<?xml version="1.0" encoding="UTF-8" standalone="no"?>
<svg
   version="1.1"
   width="84"
   height="84"
   viewBox="0 0 3187.5 1116.6057"
   id="svg2748"
   xmlns="http://www.w3.org/2000/svg"
   xmlns:svg="http://www.w3.org/2000/svg">
  <defs
     id="defs2752" />
  <g
     id="g3241">
    <g
       transform="matrix(9.375,0,0,9.375,93.75,93.75)"
       id="g2746">
      <defs
         id="SvgjsDefs2174" />
      <g
         id="SvgjsG2175"
         featureKey="UFHKJ9-0"
         transform="matrix(1.1111129,0,0,1.1111129,-5.5559507,-6.0033429)"
         fill="#0037fd">
        <g
           id="g2740">
          <path
             fill="#0037fd"
             d="M 61.402,94.597 51.846,40.048 42.242,70.334 30.666,48.227 9.511,50.178 C 7.243,50.382 5.228,48.716 5.018,46.444 4.809,44.173 6.48,42.161 8.752,41.952 l 26.665,-2.459 4.945,9.442 13.803,-43.532 9.841,56.175 3.896,-11.346 22.743,-1.236 c 2.28,-0.118 4.225,1.622 4.349,3.9 0.124,2.277 -1.622,4.225 -3.9,4.349 L 73.908,58.18 Z"
             id="path2738" />
        </g>
      </g>
      <g
         id="SvgjsG2176"
         featureKey="XAPJzK-0"
         transform="matrix(4.1900349,0,0,4.1900349,114.13395,-5.0145092)"
         fill="#1757fa">
        <path
           d="m 9.2,6.44 v 8.6 c 0,6.6 -7.8,6.64 -7.8,-0.02 v -8.6 c 0,-0.6 2.28,-0.6 2.28,0 v 8.6 c 0,3.66 3.24,3.68 3.24,0.02 v -8.6 c 0,-0.6 2.28,-0.6 2.28,0 z m 9.96,7.24 v 2.02 c 0,0.58 0.1,1.86 -0.44,2.82 -0.62,1.1 -1.8,1.42 -2.9,1.48 -1.08,0.06 -2.1,-0.34 -2.86,-1.1 C 12.16,18.14 12.04,17.18 12,16.46 V 16.42 9.58 9.54 C 12.04,8.82 12.16,7.86 12.96,7.1 13.72,6.34 14.74,5.94 15.82,6 c 2.32,0.12 3.24,1.54 3.24,3.86 0,0.52 -2.18,0.6 -2.18,-0.08 0,-1.56 -0.92,-1.64 -1.86,-1.38 -0.62,0.28 -0.74,1 -0.74,1.52 v 6.18 c 0.02,0.5 0.08,1.22 0.7,1.5 0.48,0.16 1.94,0.4 2.06,-0.8 0.04,-0.18 0.02,-0.48 0.02,-0.7 l -0.02,-1.24 h -0.88 c -0.6,0 -0.6,-2.3 0,-2.3 h 2.02 c 0.98,0 0.98,0 0.98,1.12 z M 27.1,13.6 V 6.42 c 0,-0.6 2.2,-0.6 2.2,0 v 12.74 c 0,1 -1.92,1.02 -2.12,0.52 l -3,-7.36 v 7.24 c 0,0.6 -2.22,0.6 -2.22,0 V 7.06 c 0,-1.56 1.9,-1.08 2.2,-0.48 z m 9.86,2.6 c 0,-0.6 2.22,-0.6 2.22,0 0,2.24 -1.16,3.8 -3.28,3.8 -2.22,0 -3.74,-1.38 -3.8,-3.5 V 16.46 9.56 9.52 C 32.16,7.38 33.76,5.96 35.9,6 c 2.24,0.04 3.28,1.6 3.28,3.82 0,0.6 -2.22,0.6 -2.22,0 0,-0.22 0,-0.4 -0.04,-0.6 C 36.8,8.04 35.38,8.26 35.08,8.42 34.5,8.7 34.38,9.4 34.38,9.88 v 6.26 c 0.02,0.48 0.12,1.18 0.7,1.46 0.3,0.16 1.72,0.38 1.84,-0.78 0.04,-0.2 0.04,-0.4 0.04,-0.62 z m 12.12,2.66 c 0.42,1 -1.82,1.48 -2.08,0.88 L 46.88,19.46 C 46.22,17.88 45.5,16.08 44.84,14.48 h -0.98 v 5.08 c 0,0.6 -2.28,0.6 -2.28,0 V 7.26 C 41.58,6.32 41.6,6.02 43,6 h 2.06 c 0.72,0 1.52,0.02 2.14,0.42 1.36,0.86 1.78,2.38 1.76,3.92 -0.02,1.28 -0.2,2.56 -1.46,3.5 -0.14,0.08 -0.26,0.16 -0.38,0.24 0.64,1.52 1.34,3.26 1.96,4.78 z M 43.86,12.2 h 1.72 c 0.92,0 1.06,-1.12 1.1,-1.44 C 46.7,10.54 46.7,9.74 46.66,9.36 46.58,8.62 46.3,8.24 45.38,8.24 h -1.52 z"
           id="path2743" />
      </g>
    </g>
  </g>
</svg>
